<?xml version="1.0" encoding="UTF-8" standalone="no"?>
<!DOCTYPE svg PUBLIC "-//W3C//DTD SVG 1.1//EN" "http://www.w3.org/Graphics/SVG/1.1/DTD/svg11.dtd">
<svg width="100%" height="100%" viewBox="0 0 1676 1056" version="1.1" xmlns="http://www.w3.org/2000/svg" xmlns:xlink="http://www.w3.org/1999/xlink" xml:space="preserve" xmlns:serif="http://www.serif.com/">
<title>Oro’s chart of the stars made by him about 250,000 years ago.</title>
    <rect x="-4.231" y="-0.964" width="1684.07" height="1064.62" style="stroke:black;stroke-width:5px;"/>
    <circle cx="270.861" cy="85.99" r="9" style="fill:white;stroke:white;stroke-width:1px;"/>
    <path d="M278.27,76.335l9.173,-10.152" style="fill:none;stroke:white;stroke-width:3.5px;"/>
    <path d="M251.486,70.614l10.578,7.924" style="fill:none;stroke:white;stroke-width:3.5px;"/>
    <path d="M282.695,84.64l13.444,0.019" style="fill:none;stroke:white;stroke-width:3.5px;"/>
    <path d="M271.932,73.061l-0.192,-14.571" style="fill:none;stroke:white;stroke-width:3.5px;"/>
    <path d="M251.815,86.517l5.799,0.062" style="fill:none;stroke:white;stroke-width:3.5px;"/>
    <path d="M253.052,101.764l8.515,-5.874" style="fill:none;stroke:white;stroke-width:3.5px;"/>
    <path d="M267.231,106.478l1.284,-8.305" style="fill:none;stroke:white;stroke-width:3.5px;"/>
    <path d="M281.55,103.585l-5.395,-5.957" style="fill:none;stroke:white;stroke-width:3.5px;"/>
    <circle cx="614.501" cy="220.592" r="9" style="fill:white;stroke:white;stroke-width:1px;"/>
    <path d="M625.343,217.881l17.861,-6.232" style="fill:none;stroke:white;stroke-width:3.5px;"/>
    <path d="M591.56,214.706l10.657,0.187" style="fill:none;stroke:white;stroke-width:3.5px;"/>
    <path d="M625.572,223.657l6.597,3.312" style="fill:none;stroke:white;stroke-width:3.5px;"/>
    <path d="M609.148,208.848l-7.04,-8.647" style="fill:none;stroke:white;stroke-width:3.5px;"/>
    <path d="M588.289,231.297l13.055,-6.418" style="fill:none;stroke:white;stroke-width:3.5px;"/>
    <path d="M608.652,246.197l0.623,-14.589" style="fill:none;stroke:white;stroke-width:3.5px;"/>
    <path d="M616.927,205.339l1.416,-8.904" style="fill:none;stroke:white;stroke-width:3.5px;"/>
    <path d="M623.088,243.469l-3.096,-9.853" style="fill:none;stroke:white;stroke-width:3.5px;"/>
    <circle cx="562.234" cy="315.893" r="6.932" style="fill:white;stroke:white;stroke-width:1px;"/>
    <path d="M567.097,307.938l6.279,-6.315" style="fill:none;stroke:white;stroke-width:3.5px;"/>
    <path d="M546.559,315.194l5.932,-0.328" style="fill:none;stroke:white;stroke-width:3.5px;"/>
    <path d="M571.284,315.123l12.252,0.14" style="fill:none;stroke:white;stroke-width:3.5px;"/>
    <path d="M556.251,307.126l-8.46,-7.264" style="fill:none;stroke:white;stroke-width:3.5px;"/>
    <path d="M546.241,328.409l8.271,-6.014" style="fill:none;stroke:white;stroke-width:3.5px;"/>
    <path d="M560.036,333.183l0.337,-8.217" style="fill:none;stroke:white;stroke-width:3.5px;"/>
    <path d="M563.433,303.027l-0.301,-13.106" style="fill:none;stroke:white;stroke-width:3.5px;"/>
    <path d="M576.341,329.812l-7.809,-6.76" style="fill:none;stroke:white;stroke-width:3.5px;"/>
    <circle cx="64.692" cy="584.509" r="9" style="fill:white;stroke:white;stroke-width:1px;"/>
    <path d="M76.862,579.185l4.566,-5.055" style="fill:none;stroke:white;stroke-width:3.5px;"/>
    <path d="M63.425,566.441l4.501,-4.939" style="fill:none;stroke:white;stroke-width:3.5px;"/>
    <path d="M42.783,582.972l6.869,0.043" style="fill:none;stroke:white;stroke-width:3.5px;"/>
    <path d="M73.087,592.588l5.33,5.107" style="fill:none;stroke:white;stroke-width:3.5px;"/>
    <path d="M52.938,573.727l-3.495,-2.917" style="fill:none;stroke:white;stroke-width:3.5px;"/>
    <path d="M50.854,594.241l2.999,-2.995" style="fill:none;stroke:white;stroke-width:3.5px;"/>
    <path d="M60.981,601.057l0.359,-4.831" style="fill:none;stroke:white;stroke-width:3.5px;"/>
    <path d="M63.157,573.238l0.257,-7.686" style="fill:none;stroke:white;stroke-width:3.5px;"/>
    <path d="M82.697,583.667l-6.941,0.08" style="fill:none;stroke:white;stroke-width:3.5px;"/>
    <circle cx="293.432" cy="499.564" r="7.21" style="fill:white;stroke:white;stroke-width:1px;"/>
    <path d="M300.313,492.018l2.269,-6.285" style="fill:none;stroke:white;stroke-width:3.5px;"/>
    <path d="M274.556,498.156l8.809,0.123" style="fill:none;stroke:white;stroke-width:3.5px;"/>
    <path d="M300.566,508.097l5.331,5.107" style="fill:none;stroke:white;stroke-width:3.5px;"/>
    <path d="M283.699,511.438l2.999,-2.996" style="fill:none;stroke:white;stroke-width:3.5px;"/>
    <path d="M293.483,510.247l0.01,-0.93" style="fill:none;stroke:white;stroke-width:3.5px;"/>
    <path d="M292.905,490.131l0.257,-7.686" style="fill:none;stroke:white;stroke-width:3.5px;"/>
    <path d="M309.65,498.909l-6.941,0.08" style="fill:none;stroke:white;stroke-width:3.5px;"/>
    <circle cx="413.322" cy="880.11" r="6.675" style="fill:white;stroke:white;stroke-width:1px;"/>
    <path d="M418.736,870.856l4.612,-4.835" style="fill:none;stroke:white;stroke-width:3.5px;"/>
    <path d="M425.185,874.77l7.461,-6.113" style="fill:none;stroke:white;stroke-width:3.5px;"/>
    <path d="M396.13,888.604l7.916,-3.868" style="fill:none;stroke:white;stroke-width:3.5px;"/>
    <path d="M417.794,892.804l1.528,3.681" style="fill:none;stroke:white;stroke-width:3.5px;"/>
    <path d="M399.347,871.14l3.153,2.833" style="fill:none;stroke:white;stroke-width:3.5px;"/>
    <path d="M410.711,894.954l0.01,-0.93" style="fill:none;stroke:white;stroke-width:3.5px;"/>
    <path d="M413.194,866.726l-0.261,-7.686" style="fill:none;stroke:white;stroke-width:3.5px;"/>
    <path d="M428.935,889.242l-6.626,-3.516" style="fill:none;stroke:white;stroke-width:3.5px;"/>
    <circle cx="798.698" cy="597.869" r="5.939" style="fill:white;stroke:white;stroke-width:1px;"/>
    <path d="M797.902,585.457l-0.625,-6.652" style="fill:none;stroke:white;stroke-width:3.5px;"/>
    <path d="M782.315,594.583l3.544,-0.134" style="fill:none;stroke:white;stroke-width:3.5px;"/>
    <path d="M768.673,590.617l3.544,-0.134" style="fill:none;stroke:white;stroke-width:3.5px;"/>
    <path d="M812.587,589.106l2.393,-2.617" style="fill:none;stroke:white;stroke-width:3.5px;"/>
    <path d="M817.312,576.915l-2.786,-2.196" style="fill:none;stroke:white;stroke-width:3.5px;"/>
    <path d="M801.707,606.958l6.59,8.977" style="fill:none;stroke:white;stroke-width:3.5px;"/>
    <path d="M783.725,606.81l7.102,-4.064" style="fill:none;stroke:white;stroke-width:3.5px;"/>
    <path d="M795.699,618.164l0.027,-5.336" style="fill:none;stroke:white;stroke-width:3.5px;"/>
    <path d="M794.178,587.002l-2.932,-7.11" style="fill:none;stroke:white;stroke-width:3.5px;"/>
    <path d="M814.114,600.522l-6.782,-1.481" style="fill:none;stroke:white;stroke-width:3.5px;"/>
    <circle cx="1035.64" cy="139.008" r="8" style="fill:white;stroke:white;stroke-width:1px;"/>
    <path d="M1044.21,133.691l16.603,-9.066" style="fill:none;stroke:white;stroke-width:3.5px;"/>
    <path d="M1016.93,138.766l7.87,0.034" style="fill:none;stroke:white;stroke-width:3.5px;"/>
    <path d="M1045.35,142.532l4.225,0.281" style="fill:none;stroke:white;stroke-width:3.5px;"/>
    <path d="M1031.07,128.648l-7.04,-8.648" style="fill:none;stroke:white;stroke-width:3.5px;"/>
    <path d="M1021.35,153.827l6.5,-4.812" style="fill:none;stroke:white;stroke-width:3.5px;"/>
    <path d="M1031.34,156.756l1.817,-5.679" style="fill:none;stroke:white;stroke-width:3.5px;"/>
    <path d="M1035.08,128.225l4.527,-8.948" style="fill:none;stroke:white;stroke-width:3.5px;"/>
    <path d="M1045.81,157.288l-5.184,-8.933" style="fill:none;stroke:white;stroke-width:3.5px;"/>
    <ellipse cx="1188.98" cy="177.334" rx="7.135" ry="7.126" style="fill:white;stroke:white;stroke-width:1px;"/>
    <path d="M1198.5,174.843l8.353,-3.794" style="fill:none;stroke:white;stroke-width:3.5px;"/>
    <path d="M1171.37,176.094l7.87,0.034" style="fill:none;stroke:white;stroke-width:3.5px;"/>
    <path d="M1196.54,185.427l3.603,2.225" style="fill:none;stroke:white;stroke-width:3.5px;"/>
    <path d="M1186.2,168.441l-6.342,-5.839" style="fill:none;stroke:white;stroke-width:3.5px;"/>
    <path d="M1176.88,191.383l3.354,-3.115" style="fill:none;stroke:white;stroke-width:3.5px;"/>
    <path d="M1188,196.489l0.331,-6.441" style="fill:none;stroke:white;stroke-width:3.5px;"/>
    <path d="M1195.14,170.628l1.795,-9.866" style="fill:none;stroke:white;stroke-width:3.5px;"/>
    <ellipse cx="1273.65" cy="197.303" rx="8.006" ry="7.995" style="fill:white;stroke:white;stroke-width:1px;"/>
    <path d="M1285.07,188.873l7.171,-5.721" style="fill:none;stroke:white;stroke-width:3.5px;"/>
    <path d="M1256.8,203.974l7.605,-2.026" style="fill:none;stroke:white;stroke-width:3.5px;"/>
    <path d="M1283.15,201.465l13.127,8.442" style="fill:none;stroke:white;stroke-width:3.5px;"/>
    <path d="M1262.95,191.142l-6.342,-5.839" style="fill:none;stroke:white;stroke-width:3.5px;"/>
    <path d="M1264.39,214.662l3.598,-4.655" style="fill:none;stroke:white;stroke-width:3.5px;"/>
    <path d="M1275.88,218.586l-0.273,-6.443" style="fill:none;stroke:white;stroke-width:3.5px;"/>
    <path d="M1274.17,185.836l0.195,-10.603" style="fill:none;stroke:white;stroke-width:3.5px;"/>
    <circle cx="679.533" cy="424.303" r="9" style="fill:white;stroke:white;stroke-width:1px;"/>
    <path d="M688.331,415.547l8.491,-6.441" style="fill:none;stroke:white;stroke-width:3.5px;"/>
    <path d="M690.161,432.59l8.52,6.644" style="fill:none;stroke:white;stroke-width:3.5px;"/>
    <path d="M668.97,414.593l-6.579,-4.992" style="fill:none;stroke:white;stroke-width:3.5px;"/>
    <path d="M654.752,436.277l13.054,-6.418" style="fill:none;stroke:white;stroke-width:3.5px;"/>
    <path d="M676.086,445.805l0.481,-8.654" style="fill:none;stroke:white;stroke-width:3.5px;"/>
    <path d="M680.692,408.819l0.091,-9.016" style="fill:none;stroke:white;stroke-width:3.5px;"/>
    <circle cx="1052.83" cy="985.567" r="8.435" style="fill:white;stroke:white;stroke-width:1px;"/>
    <path d="M1062.36,980.871l8.492,-6.441" style="fill:none;stroke:white;stroke-width:3.5px;"/>
    <path d="M1061.02,990.729l8.521,6.644" style="fill:none;stroke:white;stroke-width:3.5px;"/>
    <path d="M1047.64,974.446l-4.271,-7.07" style="fill:none;stroke:white;stroke-width:3.5px;"/>
    <path d="M1034.51,991.756l4.833,-1.555" style="fill:none;stroke:white;stroke-width:3.5px;"/>
    <path d="M1033.25,976.534l3.722,3.454" style="fill:none;stroke:white;stroke-width:3.5px;"/>
    <path d="M1048.79,1007.72l0.439,-11.322" style="fill:none;stroke:white;stroke-width:3px;"/>
    <path d="M1055.24,974.13l0.092,-9.016" style="fill:none;stroke:white;stroke-width:3.5px;"/>
    <circle cx="1277.94" cy="854.477" r="9" style="fill:white;stroke:white;stroke-width:1px;"/>
    <path d="M1288.93,850.132l9.76,-4.282" style="fill:none;stroke:white;stroke-width:3.5px;"/>
    <path d="M1289.33,858.464l9.439,5.257" style="fill:none;stroke:white;stroke-width:3.5px;"/>
    <path d="M1264.98,850.62l-6.58,-4.992" style="fill:none;stroke:white;stroke-width:3.5px;"/>
    <path d="M1273.31,842.955l-4.542,-10.495" style="fill:none;stroke:white;stroke-width:3.5px;"/>
    <path d="M1261.06,864.836l7.036,-2.567" style="fill:none;stroke:white;stroke-width:3.5px;"/>
    <path d="M1268.37,873.889l2.863,-3.52" style="fill:none;stroke:white;stroke-width:3.5px;"/>
    <path d="M1287,873.634l-4.339,-7.504" style="fill:none;stroke:white;stroke-width:3.5px;"/>
    <path d="M1284.14,842.304l6.144,-9.876" style="fill:none;stroke:white;stroke-width:3.5px;"/>
    <circle cx="1476.63" cy="374.155" r="9" style="fill:white;stroke:white;stroke-width:1px;"/>
    <path d="M1487.17,370.995l9.144,-5.476" style="fill:none;stroke:white;stroke-width:3.5px;"/>
    <path d="M1491.43,381.759l9.076,5.863" style="fill:none;stroke:white;stroke-width:3.5px;"/>
    <path d="M1465.66,368.282l-6.579,-4.993" style="fill:none;stroke:white;stroke-width:3.5px;"/>
    <path d="M1460.35,384.127l5.526,-2.158" style="fill:none;stroke:white;stroke-width:3.5px;"/>
    <path d="M1475.39,397.644l1.002,-12.085" style="fill:none;stroke:white;stroke-width:3.5px;"/>
    <path d="M1477.65,361.015l0.092,-9.016" style="fill:none;stroke:white;stroke-width:3.5px;"/>
    <ellipse cx="1169.89" cy="640.057" rx="9.326" ry="9.398" style="fill:white;stroke:white;stroke-width:1px;"/>
    <path d="M1181.39,639.015l10.657,-0.164" style="fill:none;stroke:white;stroke-width:3.5px;"/>
    <path d="M1143.11,642.269l14.097,-0.301" style="fill:none;stroke:white;stroke-width:3.5px;"/>
    <path d="M1184.11,640.719l9.076,5.863" style="fill:none;stroke:white;stroke-width:3.5px;"/>
    <path d="M1178.37,649.203l6.934,8.286" style="fill:none;stroke:white;stroke-width:3.5px;"/>
    <path d="M1164.17,629.144l-5.589,-6.081" style="fill:none;stroke:white;stroke-width:3.5px;"/>
    <path d="M1176.31,628.755l5.434,-6.219" style="fill:none;stroke:white;stroke-width:3.5px;"/>
    <path d="M1159.94,655.94l3.371,-4.882" style="fill:none;stroke:white;stroke-width:3.5px;"/>
    <path d="M1172.52,663.904l-0.477,-12.117" style="fill:none;stroke:white;stroke-width:3.5px;"/>
    <path d="M1169.61,627.919l0.091,-11.07" style="fill:none;stroke:white;stroke-width:3.5px;"/>
    <circle cx="236.438" cy="317.731" r="9" style="fill:white;stroke:white;stroke-width:1px;"/>
    <path d="M248.239,309.802l14.598,-12.393" style="fill:none;stroke:white;stroke-width:3.5px;"/>
    <path d="M212.98,303.054l11.296,8.823" style="fill:none;stroke:white;stroke-width:3.5px;"/>
    <path d="M247.366,329.76l0.904,6.364" style="fill:none;stroke:white;stroke-width:3.5px;"/>
    <path d="M237.379,306.085l-0.062,-15.854" style="fill:none;stroke:white;stroke-width:3.5px;"/>
    <path d="M218.63,333.505l8.631,-6.408" style="fill:none;stroke:white;stroke-width:3.5px;"/>
    <path d="M234.548,338.377l0.221,-9.332" style="fill:none;stroke:white;stroke-width:3.5px;"/>
    <path d="M262.254,331.132l-13.887,-7.791" style="fill:none;stroke:white;stroke-width:3.5px;"/>
    <circle cx="107.941" cy="329.884" r="7" style="fill:white;stroke:white;stroke-width:1px;"/>
    <path d="M117.421,322.776l4.45,-3.789" style="fill:none;stroke:white;stroke-width:3px;"/>
    <path d="M90.149,327.473l8.551,0.033" style="fill:none;stroke:white;stroke-width:3px;"/>
    <path d="M114.475,338.566l4.682,4.405" style="fill:none;stroke:white;stroke-width:3px;"/>
    <path d="M106.946,320.62l-0.406,-5.867" style="fill:none;stroke:white;stroke-width:3px;"/>
    <path d="M118.404,330.757l2.079,0.02" style="fill:none;stroke:white;stroke-width:3px;"/>
    <path d="M106.149,344.246l0.395,-4.4" style="fill:none;stroke:white;stroke-width:3.5px;"/>
    <ellipse cx="282.392" cy="408.336" rx="6.099" ry="6.008" style="fill:white;stroke:white;stroke-width:1px;"/>
    <path d="M286.124,400.386l3.751,-4.482" style="fill:none;stroke:white;stroke-width:3px;"/>
    <path d="M263.855,411.462l8.517,-0.761" style="fill:none;stroke:white;stroke-width:3px;"/>
    <path d="M268.426,417.742l8.204,-2.412" style="fill:none;stroke:white;stroke-width:3px;"/>
    <path d="M288.066,414.472l2.774,1.912" style="fill:none;stroke:white;stroke-width:3px;"/>
    <path d="M281.266,399.214l-3.427,-8.523" style="fill:none;stroke:white;stroke-width:3px;"/>
    <path d="M290.706,407.234l6.132,0.076" style="fill:none;stroke:white;stroke-width:3px;"/>
    <path d="M280.375,422.941l4.416,-0.088" style="fill:none;stroke:white;stroke-width:3.5px;"/>
    <ellipse cx="327.543" cy="388.905" rx="6.099" ry="6.008" style="fill:white;stroke:white;stroke-width:1px;"/>
    <path d="M330.824,381.635l2.209,-2.884" style="fill:none;stroke:white;stroke-width:3px;"/>
    <path d="M314.58,392.063l5.303,-0.918" style="fill:none;stroke:white;stroke-width:3px;"/>
    <path d="M319.121,399.591l3.034,-2.816" style="fill:none;stroke:white;stroke-width:3px;"/>
    <path d="M330.06,395.56l2.059,2.667" style="fill:none;stroke:white;stroke-width:3px;"/>
    <path d="M325.559,379.677l-5.412,-7.423" style="fill:none;stroke:white;stroke-width:3px;"/>
    <path d="M335.213,387.257l7.87,0.076" style="fill:none;stroke:white;stroke-width:3px;"/>
    <path d="M333.186,398.609l2.873,0.152" style="fill:none;stroke:white;stroke-width:3.5px;"/>
    <ellipse cx="1247.07" cy="661.59" rx="6.099" ry="6.008" style="fill:white;stroke:white;stroke-width:1px;"/>
    <path d="M1254.31,653.861l2.209,-2.885" style="fill:none;stroke:white;stroke-width:3px;"/>
    <path d="M1236.2,650.751l-3.334,-0.326" style="fill:none;stroke:white;stroke-width:3px;"/>
    <path d="M1238.15,659.097l-4.248,-0.323" style="fill:none;stroke:white;stroke-width:3px;"/>
    <path d="M1238.66,670.002l2.339,-2.917" style="fill:none;stroke:white;stroke-width:3px;"/>
    <path d="M1247.56,669.906l0.158,3.366" style="fill:none;stroke:white;stroke-width:3px;"/>
    <path d="M1244.42,652.698l-0.246,-7.388" style="fill:none;stroke:white;stroke-width:3px;"/>
    <path d="M1255.03,663.782l7.324,2.881" style="fill:none;stroke:white;stroke-width:3px;"/>
    <ellipse cx="1208.52" cy="610.023" rx="5.407" ry="5.327" style="fill:white;stroke:white;stroke-width:1px;"/>
    <path d="M1220.34,606.618l0.718,-3.561" style="fill:none;stroke:white;stroke-width:3px;"/>
    <path d="M1198.17,606.712l-4.247,-0.323" style="fill:none;stroke:white;stroke-width:3px;"/>
    <path d="M1199.71,614.942l-4.248,-0.323" style="fill:none;stroke:white;stroke-width:3px;"/>
    <path d="M1201.61,621.651l1.693,-3.334" style="fill:none;stroke:white;stroke-width:5px;"/>
    <path d="M1212.51,619.356l4.356,10.232" style="fill:none;stroke:white;stroke-width:3px;"/>
    <path d="M1207.23,602.632l-2.019,-7.111" style="fill:none;stroke:white;stroke-width:3px;"/>
    <path d="M1219.7,619.828l7.086,-3.425" style="fill:none;stroke:white;stroke-width:3px;"/>
    <ellipse cx="1592.32" cy="398.865" rx="2.506" ry="2.469" style="fill:white;"/>
    <ellipse cx="1599.46" cy="396.995" rx="2.989" ry="2.944" style="fill:white;"/>
    <ellipse cx="1603.3" cy="377.833" rx="2.506" ry="2.469" style="fill:white;"/>
    <ellipse cx="1610.49" cy="382.627" rx="2.506" ry="2.469" style="fill:white;"/>
    <ellipse cx="1608.19" cy="395.495" rx="2.506" ry="2.469" style="fill:white;"/>
    <path d="M1595.41,369.228l-0.043,-5.917" style="fill:none;stroke:white;stroke-width:3px;"/>
    <path d="M1583.1,391.597l-4.248,-0.323" style="fill:none;stroke:white;stroke-width:3px;"/>
    <path d="M1582.55,401.572l-4.247,-0.323" style="fill:none;stroke:white;stroke-width:3px;"/>
    <path d="M1599.12,390.462l0.306,-7.386" style="fill:none;stroke:white;stroke-width:3px;"/>
    <path d="M1602.97,405.602l-1.562,-3.342" style="fill:none;stroke:white;stroke-width:3px;"/>
    <path d="M1599.76,422.264l-0.088,-3.687" style="fill:none;stroke:white;stroke-width:3px;"/>
    <path d="M1611.11,411.406l-3.687,-0.135" style="fill:none;stroke:white;stroke-width:3px;"/>
    <path d="M1616.9,402.386l-2.879,-2.306" style="fill:none;stroke:white;stroke-width:3px;"/>
    <path d="M1591.82,411.995l-3.916,5.942" style="fill:none;stroke:white;stroke-width:3px;"/>
    <ellipse cx="1167.55" cy="879.21" rx="6.099" ry="6.008" style="fill:white;"/>
    <path d="M1174.79,871.481l2.209,-2.884" style="fill:none;stroke:white;stroke-width:3px;"/>
    <path d="M1158.64,872.004l-5.288,-3.958" style="fill:none;stroke:white;stroke-width:3px;"/>
    <path d="M1159.14,887.622l2.339,-2.917" style="fill:none;stroke:white;stroke-width:3px;"/>
    <path d="M1168.04,887.526l0.158,3.366" style="fill:none;stroke:white;stroke-width:3px;"/>
    <path d="M1159.96,898.532l0.158,3.365" style="fill:none;stroke:white;stroke-width:3px;"/>
    <path d="M1168.28,869.526l3.213,-6.371" style="fill:none;stroke:white;stroke-width:3px;"/>
    <path d="M1175.5,881.403l3.116,1.793" style="fill:none;stroke:white;stroke-width:3px;"/>
    <ellipse cx="1208.31" cy="763.037" rx="6.099" ry="6.008" style="fill:white;"/>
    <path d="M1201.33,755.717l-2.819,-1.81" style="fill:none;stroke:white;stroke-width:3px;"/>
    <path d="M1211.9,771.376l2.267,2.493" style="fill:none;stroke:white;stroke-width:3px;"/>
    <path d="M1207.17,755.036l1.973,-4.238" style="fill:none;stroke:white;stroke-width:3px;"/>
    <path d="M1216.96,765.6l6.397,0.476" style="fill:none;stroke:white;stroke-width:3px;"/>
    <ellipse cx="1192.09" cy="770.757" rx="6.417" ry="6.321" style="fill:white;"/>
    <ellipse cx="1197.49" cy="790.244" rx="4.223" ry="4.188" style="fill:white;"/>
    <ellipse cx="1210.85" cy="812.8" rx="4.223" ry="4.188" style="fill:white;"/>
    <ellipse cx="1211.36" cy="825.319" rx="4.223" ry="4.188" style="fill:white;"/>
    <path d="M1181.36,764.637l-2.909,-1.661" style="fill:none;stroke:white;stroke-width:3px;"/>
    <path d="M1182.51,773.728l-5.258,3.766" style="fill:none;stroke:white;stroke-width:3px;"/>
    <path d="M1192.16,779.475l0.158,3.366" style="fill:none;stroke:white;stroke-width:3px;"/>
    <path d="M1189.01,762.267l-0.246,-7.388" style="fill:none;stroke:white;stroke-width:3px;"/>
    <path d="M1199.62,773.351l7.324,2.881" style="fill:none;stroke:white;stroke-width:3px;"/>
    <path d="M1218.72,811.766l7.869,-0.118" style="fill:none;stroke:white;stroke-width:3px;"/>
    <path d="M1198.72,810.717l1.654,10.556" style="fill:none;stroke:white;stroke-width:2.5px;"/>
    <path d="M1203.54,831.165l-4.045,4.604" style="fill:none;stroke:white;stroke-width:3px;"/>
    <path d="M1207.08,800.329l1.038,6.575" style="fill:none;stroke:white;stroke-width:2.5px;"/>
    <path d="M1217.97,824.868l7.643,1.878" style="fill:none;stroke:white;stroke-width:3px;"/>
    <path d="M1212.46,839.252l-0.477,-7.855" style="fill:none;stroke:white;stroke-width:2.5px;"/>
    <ellipse cx="1226.41" cy="752.294" rx="6.417" ry="6.321" style="fill:white;"/>
    <ellipse cx="1213.93" cy="741.685" rx="5.068" ry="5.084" style="fill:white;"/>
    <path d="M1216.83,755.265l-5.258,3.766" style="fill:none;stroke:white;stroke-width:3px;"/>
    <path d="M1232.3,744.835l-0.246,-7.388" style="fill:none;stroke:white;stroke-width:3px;"/>
    <path d="M1213.08,733.865l1.689,-7.197" style="fill:none;stroke:white;stroke-width:3px;"/>
    <path d="M1237.86,746.43l7.39,0.185" style="fill:none;stroke:white;stroke-width:3px;"/>
    <path d="M1220.68,736.435l6.28,-3.9" style="fill:none;stroke:white;stroke-width:3px;"/>
    <path d="M1197.3,741.897l7.39,0.186" style="fill:none;stroke:white;stroke-width:3px;"/>
    <path d="M1235.67,760.687l6.519,4.409" style="fill:none;stroke:white;stroke-width:3px;"/>
</svg>
