<?xml version="1.0" encoding="UTF-8" standalone="no"?>
<!DOCTYPE svg PUBLIC "-//W3C//DTD SVG 1.1//EN" "http://www.w3.org/Graphics/SVG/1.1/DTD/svg11.dtd">
<svg width="100%" height="100%" viewBox="0 0 1676 1056" version="1.1" xmlns="http://www.w3.org/2000/svg" xmlns:xlink="http://www.w3.org/1999/xlink" xml:space="preserve" xmlns:serif="http://www.serif.com/">
<title>Oro’s chart of the stars as he calculated they would appear at his awakening.</title>
    <rect x="-13.772" y="-13.103" width="1697.35" height="1081.28" style="stroke:black;stroke-width:5px;"/>
    <ellipse cx="947.042" cy="950.654" rx="12.998" ry="12.296" style="fill:white;stroke:white;stroke-width:1px;"/>
    <path d="M960.499,935.263l9.173,-10.152" style="fill:none;stroke:white;stroke-width:3.5px;"/>
    <path d="M923.308,919.986l11.244,15.973" style="fill:none;stroke:white;stroke-width:3.5px;"/>
    <path d="M972.341,950.357l17.644,-10.204" style="fill:none;stroke:white;stroke-width:3.5px;"/>
    <path d="M948.837,934.106l-0.192,-14.571" style="fill:none;stroke:white;stroke-width:3.5px;"/>
    <path d="M948.588,920.525l9.253,-16.172" style="fill:none;stroke:white;stroke-width:3.5px;"/>
    <path d="M910.931,949.414l16.072,0.024" style="fill:none;stroke:white;stroke-width:3.5px;"/>
    <path d="M909.919,966.126l14.838,-5.165" style="fill:none;stroke:white;stroke-width:3.5px;"/>
    <path d="M937.62,1000.54l1.624,-11.531" style="fill:none;stroke:white;stroke-width:3.5px;"/>
    <path d="M942.124,985.586l1.625,-11.531" style="fill:none;stroke:white;stroke-width:3.5px;"/>
    <path d="M925.037,977.002l9.713,-6.424" style="fill:none;stroke:white;stroke-width:3.5px;"/>
    <path d="M971.638,976.234l-9.963,-10.979" style="fill:none;stroke:white;stroke-width:3.5px;"/>
    <path d="M960.178,984.765l-5.952,-8.833" style="fill:none;stroke:white;stroke-width:3.5px;"/>
    <circle cx="747.014" cy="296.469" r="9" style="fill:white;stroke:white;stroke-width:1px;"/>
    <path d="M762.622,296.425l13.382,-0.09" style="fill:none;stroke:white;stroke-width:3.5px;"/>
    <path d="M724.615,286l10.28,2.817" style="fill:none;stroke:white;stroke-width:3.5px;"/>
    <path d="M726.344,295.104l5.828,0.315" style="fill:none;stroke:white;stroke-width:3.5px;"/>
    <path d="M754.248,283.848l7.431,-8.313" style="fill:none;stroke:white;stroke-width:3.5px;"/>
    <path d="M724.05,309.664l13.054,-6.419" style="fill:none;stroke:white;stroke-width:3.5px;"/>
    <path d="M744.01,317.027l1.414,-8.451" style="fill:none;stroke:white;stroke-width:3.5px;"/>
    <path d="M747.924,284.179l-0.081,-13.251" style="fill:none;stroke:white;stroke-width:3.5px;"/>
    <path d="M763.512,311.905l-8.452,-5.935" style="fill:none;stroke:white;stroke-width:3.5px;"/>
    <circle cx="183.989" cy="579.464" r="9" style="fill:white;stroke:white;stroke-width:1px;"/>
    <path d="M197.398,571.064l15.495,-11.076" style="fill:none;stroke:white;stroke-width:3.5px;"/>
    <path d="M192.533,565.466l1.746,-6.449" style="fill:none;stroke:white;stroke-width:3.5px;"/>
    <path d="M161.311,574.163l6.869,0.044" style="fill:none;stroke:white;stroke-width:3.5px;"/>
    <path d="M189.779,590.076l8.811,13.622" style="fill:none;stroke:white;stroke-width:3.5px;"/>
    <path d="M171.619,568.445l-12.953,-12.708" style="fill:none;stroke:white;stroke-width:3.5px;"/>
    <path d="M162.127,587.37l2.999,-2.996" style="fill:none;stroke:white;stroke-width:3.5px;"/>
    <path d="M164.286,598.589l8.02,-7.405" style="fill:none;stroke:white;stroke-width:3.5px;"/>
    <path d="M182.296,598.977l-0.198,-7.024" style="fill:none;stroke:white;stroke-width:3.5px;"/>
    <path d="M180.053,566.658l0.402,-11.159" style="fill:none;stroke:white;stroke-width:3.5px;"/>
    <path d="M205.458,582.772l-4.239,0.067" style="fill:none;stroke:white;stroke-width:3.5px;"/>
    <circle cx="187.955" cy="515.171" r="7.21" style="fill:white;stroke:white;stroke-width:1px;"/>
    <path d="M197.276,510.577l5.635,-3.591" style="fill:none;stroke:white;stroke-width:3.5px;"/>
    <path d="M214.482,494.917l3.08,-3.138" style="fill:none;stroke:white;stroke-width:3.5px;"/>
    <path d="M169.722,523.051l7.064,-5.264" style="fill:none;stroke:white;stroke-width:3.5px;"/>
    <path d="M198.637,519.388l6.456,3.579" style="fill:none;stroke:white;stroke-width:3.5px;"/>
    <path d="M175.631,502.779l2.964,2.933" style="fill:none;stroke:white;stroke-width:3.5px;"/>
    <path d="M185.062,529.793l0.953,-4.13" style="fill:none;stroke:white;stroke-width:3.5px;"/>
    <path d="M190.195,505.486l0.257,-7.686" style="fill:none;stroke:white;stroke-width:3.5px;"/>
    <ellipse cx="350.694" cy="855.41" rx="7.362" ry="7.211" style="fill:white;stroke:white;stroke-width:1px;"/>
    <path d="M362.335,846.679l8.322,-5.265" style="fill:none;stroke:white;stroke-width:3.5px;"/>
    <path d="M362.847,853.132l9.644,-0.156" style="fill:none;stroke:white;stroke-width:3.5px;"/>
    <path d="M333.069,869.402l7.916,-3.868" style="fill:none;stroke:white;stroke-width:3.5px;"/>
    <path d="M333.118,845.104l3.153,2.833" style="fill:none;stroke:white;stroke-width:3.5px;"/>
    <path d="M329.112,855.304l4.237,0.115" style="fill:none;stroke:white;stroke-width:3.5px;"/>
    <path d="M349.705,880.96l0.423,-13.678" style="fill:none;stroke:white;stroke-width:3.5px;"/>
    <path d="M346.583,841.641l-5.127,-11.348" style="fill:none;stroke:white;stroke-width:3.5px;"/>
    <path d="M353.4,841.291l0.554,-12.441" style="fill:none;stroke:white;stroke-width:3.5px;"/>
    <path d="M370.518,875.833l-10.203,-11.901" style="fill:none;stroke:white;stroke-width:3.5px;"/>
    <ellipse cx="740.169" cy="652.298" rx="9.455" ry="9.181" style="fill:white;stroke:white;stroke-width:1px;"/>
    <path d="M749.973,640.031l4.532,-3.835" style="fill:none;stroke:white;stroke-width:3.5px;"/>
    <path d="M752.53,651.73l9.644,-0.157" style="fill:none;stroke:white;stroke-width:3.5px;"/>
    <path d="M730.673,676.875l4.496,-13.151" style="fill:none;stroke:white;stroke-width:3.5px;"/>
    <path d="M716.832,648.061l4.234,0.206" style="fill:none;stroke:white;stroke-width:3.5px;"/>
    <path d="M720.207,659.995l7.138,-3.149" style="fill:none;stroke:white;stroke-width:3.5px;"/>
    <path d="M733.698,639.966l-8.643,-8.965" style="fill:none;stroke:white;stroke-width:3.5px;"/>
    <path d="M739.831,637.924l0.13,-7.773" style="fill:none;stroke:white;stroke-width:3.5px;"/>
    <path d="M762.116,673.518l-10.203,-11.901" style="fill:none;stroke:white;stroke-width:3.5px;"/>
    <circle cx="784.124" cy="615.598" r="5.939" style="fill:white;stroke:white;stroke-width:1px;"/>
    <path d="M787.949,601.802l4.231,-5.172" style="fill:none;stroke:white;stroke-width:3.5px;"/>
    <path d="M767.438,615.338l3.544,-0.135" style="fill:none;stroke:white;stroke-width:3.5px;"/>
    <path d="M793.806,610.715l7.213,-5.096" style="fill:none;stroke:white;stroke-width:3.5px;"/>
    <path d="M787.02,624.875l3.28,6.597" style="fill:none;stroke:white;stroke-width:3.5px;"/>
    <path d="M774.964,631.165l4.098,-7.082" style="fill:none;stroke:white;stroke-width:3.5px;"/>
    <path d="M775.979,606.125l-3.968,-3.567" style="fill:none;stroke:white;stroke-width:3.5px;"/>
    <path d="M781.076,604.41l-0.528,-11.104" style="fill:none;stroke:white;stroke-width:3.5px;"/>
    <path d="M799.423,622.916l-6.143,-3.231" style="fill:none;stroke:white;stroke-width:3.5px;"/>
    <circle cx="1102.27" cy="119.473" r="8" style="fill:white;stroke:white;stroke-width:1px;"/>
    <path d="M1115.64,116.442l11.373,-4.408" style="fill:none;stroke:white;stroke-width:3.5px;"/>
    <path d="M1084.47,116.769l5.434,1.818" style="fill:none;stroke:white;stroke-width:3.5px;"/>
    <path d="M1117.11,122.465l4.226,0.28" style="fill:none;stroke:white;stroke-width:3.5px;"/>
    <path d="M1117.57,104.105l3.875,-2.529" style="fill:none;stroke:white;stroke-width:3.5px;"/>
    <path d="M1097.42,107.966l-3.805,-10.482" style="fill:none;stroke:white;stroke-width:3.5px;"/>
    <path d="M1084.35,128.131l7.116,-3.843" style="fill:none;stroke:white;stroke-width:3.5px;"/>
    <path d="M1095.03,141.572l1.818,-5.679" style="fill:none;stroke:white;stroke-width:3.5px;"/>
    <path d="M1104.83,108.728l4.527,-8.948" style="fill:none;stroke:white;stroke-width:3.5px;"/>
    <path d="M1111.4,138.921l-5.184,-8.933" style="fill:none;stroke:white;stroke-width:3.5px;"/>
    <ellipse cx="1223.35" cy="335.026" rx="7.135" ry="7.126" style="fill:white;stroke:white;stroke-width:1px;"/>
    <path d="M1232.86,332.535l8.353,-3.794" style="fill:none;stroke:white;stroke-width:3.5px;"/>
    <path d="M1205.74,333.786l7.87,0.034" style="fill:none;stroke:white;stroke-width:3.5px;"/>
    <path d="M1230.91,343.119l3.603,2.225" style="fill:none;stroke:white;stroke-width:3.5px;"/>
    <path d="M1220.57,326.133l-6.342,-5.838" style="fill:none;stroke:white;stroke-width:3.5px;"/>
    <path d="M1211.25,349.075l3.354,-3.115" style="fill:none;stroke:white;stroke-width:3.5px;"/>
    <path d="M1222.37,354.181l0.331,-6.44" style="fill:none;stroke:white;stroke-width:3.5px;"/>
    <path d="M1229.5,328.32l1.795,-9.866" style="fill:none;stroke:white;stroke-width:3.5px;"/>
    <ellipse cx="1093.76" cy="227.26" rx="8.006" ry="7.995" style="fill:white;stroke:white;stroke-width:1px;"/>
    <path d="M1099.78,217.525l3.764,-10.592" style="fill:none;stroke:white;stroke-width:3.5px;"/>
    <path d="M1077.3,236.403l7.06,-3.477" style="fill:none;stroke:white;stroke-width:3.5px;"/>
    <path d="M1100.65,236.809l11.385,10.676" style="fill:none;stroke:white;stroke-width:3.5px;"/>
    <path d="M1082.13,222.998l-5.752,-3.055" style="fill:none;stroke:white;stroke-width:3.5px;"/>
    <path d="M1088.44,246.347l2.11,-7.946" style="fill:none;stroke:white;stroke-width:3.5px;"/>
    <path d="M1119.97,221.172l-14.174,4.189" style="fill:none;stroke:white;stroke-width:3.5px;"/>
    <path d="M1093,215.765l-5.525,-9.052" style="fill:none;stroke:white;stroke-width:3.5px;"/>
    <circle cx="710.729" cy="347.689" r="9" style="fill:white;stroke:white;stroke-width:1px;"/>
    <path d="M724.182,344.615l12.904,-7.224" style="fill:none;stroke:white;stroke-width:3.5px;"/>
    <path d="M717.598,359.241l7.423,11.173" style="fill:none;stroke:white;stroke-width:3.5px;"/>
    <path d="M694.732,340.716l-9.085,-4.398" style="fill:none;stroke:white;stroke-width:3.5px;"/>
    <path d="M685.279,354.549l14.2,-3.156" style="fill:none;stroke:white;stroke-width:3.5px;"/>
    <path d="M697.58,366.331l4.927,-7.509" style="fill:none;stroke:white;stroke-width:3.5px;"/>
    <path d="M703.665,374.852l-5.113,-7.383" style="fill:none;stroke:white;stroke-width:3.5px;"/>
    <path d="M706.461,334.854l-1.42,-8.903" style="fill:none;stroke:white;stroke-width:3.5px;"/>
    <path d="M715.511,333.328l0.859,-4.151" style="fill:none;stroke:white;stroke-width:3.5px;"/>
    <circle cx="1036.77" cy="969.42" r="8.435" style="fill:white;stroke:white;stroke-width:1px;"/>
    <path d="M1046.3,964.724l8.492,-6.441" style="fill:none;stroke:white;stroke-width:3.5px;"/>
    <path d="M1046.39,973.186l8.52,6.644" style="fill:none;stroke:white;stroke-width:3.5px;"/>
    <path d="M1033.88,958.489l-1.664,-2.654" style="fill:none;stroke:white;stroke-width:3.5px;"/>
    <path d="M1022.8,983.688l5.636,-5.854" style="fill:none;stroke:white;stroke-width:3.5px;"/>
    <path d="M1022.04,958.486l5.456,4.844" style="fill:none;stroke:white;stroke-width:3.5px;"/>
    <path d="M1048.06,987.892l-6.62,-9.196" style="fill:none;stroke:white;stroke-width:3px;"/>
    <path d="M1039.18,957.983l0.092,-9.015" style="fill:none;stroke:white;stroke-width:3.5px;"/>
    <circle cx="1279.07" cy="832.086" r="9" style="fill:white;stroke:white;stroke-width:1px;"/>
    <path d="M1290.06,827.742l9.76,-4.283" style="fill:none;stroke:white;stroke-width:3.5px;"/>
    <path d="M1290.46,836.074l9.439,5.256" style="fill:none;stroke:white;stroke-width:3.5px;"/>
    <path d="M1266.1,828.23l-6.58,-4.993" style="fill:none;stroke:white;stroke-width:3.5px;"/>
    <path d="M1274.44,820.564l-4.542,-10.495" style="fill:none;stroke:white;stroke-width:3.5px;"/>
    <path d="M1262.18,842.445l7.036,-2.567" style="fill:none;stroke:white;stroke-width:3.5px;"/>
    <path d="M1269.49,851.498l2.863,-3.52" style="fill:none;stroke:white;stroke-width:3.5px;"/>
    <path d="M1288.12,851.243l-4.339,-7.503" style="fill:none;stroke:white;stroke-width:3.5px;"/>
    <path d="M1285.27,819.913l6.144,-9.876" style="fill:none;stroke:white;stroke-width:3.5px;"/>
    <circle cx="1417.53" cy="492.076" r="9" style="fill:white;stroke:white;stroke-width:1px;"/>
    <path d="M1432.67,494.03l10.655,0.29" style="fill:none;stroke:white;stroke-width:3.5px;"/>
    <path d="M1395.47,492.609l10.654,0.29" style="fill:none;stroke:white;stroke-width:3.5px;"/>
    <path d="M1426.51,502.001l4.057,3.156" style="fill:none;stroke:white;stroke-width:3.5px;"/>
    <path d="M1403.68,480.639l-6.579,-4.992" style="fill:none;stroke:white;stroke-width:3.5px;"/>
    <path d="M1404.03,508.616l6.05,-4.277" style="fill:none;stroke:white;stroke-width:3.5px;"/>
    <path d="M1423.49,514.445l-5.397,-10.236" style="fill:none;stroke:white;stroke-width:3.5px;"/>
    <path d="M1422.24,480.286l4.795,-10.98" style="fill:none;stroke:white;stroke-width:3.5px;"/>
    <ellipse cx="1121.89" cy="625.612" rx="9.326" ry="9.398" style="fill:white;stroke:white;stroke-width:1px;"/>
    <path d="M1138.67,628.992l12.441,0.006" style="fill:none;stroke:white;stroke-width:3.5px;"/>
    <path d="M1100.59,643.799l9.599,-10.328" style="fill:none;stroke:white;stroke-width:3.5px;"/>
    <path d="M1096.2,617.339l13.791,2.935" style="fill:none;stroke:white;stroke-width:3.5px;"/>
    <path d="M1128.39,638.8l5.586,12.205" style="fill:none;stroke:white;stroke-width:3.5px;"/>
    <path d="M1113.99,612.791l-5.588,-6.081" style="fill:none;stroke:white;stroke-width:3.5px;"/>
    <path d="M1133.42,615.367l8.222,-6.415" style="fill:none;stroke:white;stroke-width:3.5px;"/>
    <path d="M1109.4,649.219l5.121,-7.115" style="fill:none;stroke:white;stroke-width:3.5px;"/>
    <path d="M1123.98,610.493l0.17,-13.793" style="fill:none;stroke:white;stroke-width:3.5px;"/>
    <ellipse cx="1254.7" cy="99.5" rx="9.409" ry="9.291" style="fill:white;stroke:white;stroke-width:1px;"/>
    <ellipse cx="1267.94" cy="149.471" rx="3.853" ry="3.809" style="fill:white;stroke:white;stroke-width:1px;"/>
    <path d="M1267.83,93.923l14.598,-12.392" style="fill:none;stroke:white;stroke-width:3.5px;"/>
    <path d="M1270.93,102.51l9.57,-0.471" style="fill:none;stroke:white;stroke-width:3.5px;"/>
    <path d="M1227.02,86.633l11.296,8.823" style="fill:none;stroke:white;stroke-width:3.5px;"/>
    <path d="M1259.06,114.644l1.439,9.877" style="fill:none;stroke:white;stroke-width:3.5px;"/>
    <path d="M1252.93,86.752l-3.179,-15.532" style="fill:none;stroke:white;stroke-width:3.5px;"/>
    <path d="M1227.79,112.141l12.784,-4.709" style="fill:none;stroke:white;stroke-width:3.5px;"/>
    <path d="M1249.72,124.933l0.221,-9.332" style="fill:none;stroke:white;stroke-width:3.5px;"/>
    <path d="M1278.23,123.255l-11.632,-11.189" style="fill:none;stroke:white;stroke-width:3.5px;"/>
    <circle cx="141.704" cy="478.578" r="7" style="fill:white;stroke:white;stroke-width:1px;"/>
    <path d="M151.748,473.835l5.778,-0.879" style="fill:none;stroke:white;stroke-width:3px;"/>
    <path d="M123.599,479.051l8.551,0.033" style="fill:none;stroke:white;stroke-width:3px;"/>
    <path d="M149.584,485.159l4.681,4.406" style="fill:none;stroke:white;stroke-width:3px;"/>
    <path d="M145.377,469.306l-0.406,-5.866" style="fill:none;stroke:white;stroke-width:3px;"/>
    <path d="M128.329,465.118l1.681,1.224" style="fill:none;stroke:white;stroke-width:3px;"/>
    <path d="M137.749,492.483l0.394,-4.399" style="fill:none;stroke:white;stroke-width:3.5px;"/>
    <ellipse cx="263.224" cy="422.469" rx="6.099" ry="6.008" style="fill:white;stroke:white;stroke-width:1px;"/>
    <path d="M269.684,415.621l5.027,-2.981" style="fill:none;stroke:white;stroke-width:3px;"/>
    <path d="M244.688,425.595l8.516,-0.761" style="fill:none;stroke:white;stroke-width:3px;"/>
    <path d="M255.129,438.869l3.63,-7.742" style="fill:none;stroke:white;stroke-width:3px;"/>
    <path d="M272.372,425.493l8.653,3.767" style="fill:none;stroke:white;stroke-width:3px;"/>
    <path d="M266.091,412.052l1.153,-10.706" style="fill:none;stroke:white;stroke-width:3px;"/>
    <path d="M250.432,408.941l3.75,2.335" style="fill:none;stroke:white;stroke-width:3.5px;"/>
    <ellipse cx="152.661" cy="427.931" rx="6.099" ry="6.008" style="fill:white;stroke:white;stroke-width:1px;"/>
    <path d="M154.469,417.998l2.023,-5.483" style="fill:none;stroke:white;stroke-width:3px;"/>
    <path d="M134.285,427.154l8.534,0.539" style="fill:none;stroke:white;stroke-width:3px;"/>
    <path d="M144.633,440.396l3.239,-3.264" style="fill:none;stroke:white;stroke-width:3px;"/>
    <path d="M156.463,440.172l2.775,1.911" style="fill:none;stroke:white;stroke-width:3px;"/>
    <path d="M162.467,429.257l9.788,2.367" style="fill:none;stroke:white;stroke-width:3px;"/>
    <path d="M138.215,417.064l3.997,1.88" style="fill:none;stroke:white;stroke-width:3.5px;"/>
    <ellipse cx="234.862" cy="391.278" rx="6.099" ry="6.008" style="fill:white;stroke:white;stroke-width:1px;"/>
    <path d="M238.144,384.008l2.209,-2.885" style="fill:none;stroke:white;stroke-width:3px;"/>
    <path d="M226.159,409.688l4.66,-7.428" style="fill:none;stroke:white;stroke-width:3px;"/>
    <path d="M238.445,399.313l3.706,6.583" style="fill:none;stroke:white;stroke-width:3px;"/>
    <path d="M227.292,386.925l-12.054,-6.446" style="fill:none;stroke:white;stroke-width:3px;"/>
    <path d="M242.51,380.35l-5.159,-8.05" style="fill:none;stroke:white;stroke-width:3px;"/>
    <path d="M251.008,395.747l2.873,0.153" style="fill:none;stroke:white;stroke-width:3.5px;"/>
    <ellipse cx="1242.59" cy="637.006" rx="6.099" ry="6.008" style="fill:white;stroke:white;stroke-width:1px;"/>
    <path d="M1249.83,629.277l2.209,-2.885" style="fill:none;stroke:white;stroke-width:3px;"/>
    <path d="M1231.73,626.167l-3.333,-0.326" style="fill:none;stroke:white;stroke-width:3px;"/>
    <path d="M1233.67,634.513l-4.247,-0.323" style="fill:none;stroke:white;stroke-width:3px;"/>
    <path d="M1234.19,645.418l2.339,-2.917" style="fill:none;stroke:white;stroke-width:3px;"/>
    <path d="M1243.09,645.322l0.157,3.366" style="fill:none;stroke:white;stroke-width:3px;"/>
    <path d="M1239.94,628.114l-0.246,-7.388" style="fill:none;stroke:white;stroke-width:3px;"/>
    <path d="M1250.55,639.198l7.323,2.881" style="fill:none;stroke:white;stroke-width:3px;"/>
    <ellipse cx="1191" cy="587.393" rx="4.817" ry="4.833" style="fill:white;stroke:white;stroke-width:1px;"/>
    <ellipse cx="1198.14" cy="593.551" rx="2.758" ry="2.809" style="fill:white;stroke:white;stroke-width:1px;"/>
    <ellipse cx="1186.96" cy="596.838" rx="2.758" ry="2.809" style="fill:white;stroke:white;stroke-width:1px;"/>
    <path d="M1207.37,585.549l2.732,-2.395" style="fill:none;stroke:white;stroke-width:3px;"/>
    <path d="M1179.1,596.271l-4.247,-0.323" style="fill:none;stroke:white;stroke-width:3px;"/>
    <path d="M1185.37,606.233l-1.201,4.086" style="fill:none;stroke:white;stroke-width:3px;"/>
    <path d="M1197.51,607.322l0.414,5.145" style="fill:none;stroke:white;stroke-width:3px;"/>
    <path d="M1204.06,600.516l2.131,4.702" style="fill:none;stroke:white;stroke-width:3px;"/>
    <path d="M1189.88,576.186l-1.432,-7.252" style="fill:none;stroke:white;stroke-width:3px;"/>
    <path d="M1179.21,580.684l-2.597,-2.502" style="fill:none;stroke:white;stroke-width:3px;"/>
    <path d="M1199.77,579.017l2.553,-2.548" style="fill:none;stroke:white;stroke-width:3px;"/>
    <path d="M1210.06,593.623l7.788,1.128" style="fill:none;stroke:white;stroke-width:3px;"/>
    <ellipse cx="1582.84" cy="384.026" rx="2.506" ry="2.469" style="fill:white;stroke:white;stroke-width:1px;"/>
    <ellipse cx="1589.98" cy="382.155" rx="2.989" ry="2.944" style="fill:white;stroke:white;stroke-width:1px;"/>
    <ellipse cx="1593.83" cy="362.993" rx="2.506" ry="2.469" style="fill:white;stroke:white;stroke-width:1px;"/>
    <ellipse cx="1601.01" cy="367.788" rx="2.506" ry="2.469" style="fill:white;stroke:white;stroke-width:1px;"/>
    <ellipse cx="1598.71" cy="380.655" rx="2.506" ry="2.469" style="fill:white;stroke:white;stroke-width:1px;"/>
    <path d="M1585.93,354.388l-0.043,-5.916" style="fill:none;stroke:white;stroke-width:3px;"/>
    <path d="M1573.62,376.758l-4.247,-0.323" style="fill:none;stroke:white;stroke-width:3px;"/>
    <path d="M1573.07,386.733l-4.248,-0.323" style="fill:none;stroke:white;stroke-width:3px;"/>
    <path d="M1589.64,375.623l0.306,-7.386" style="fill:none;stroke:white;stroke-width:3px;"/>
    <path d="M1593.49,390.763l-1.562,-3.342" style="fill:none;stroke:white;stroke-width:3px;"/>
    <path d="M1590.28,407.425l-0.088,-3.688" style="fill:none;stroke:white;stroke-width:3px;"/>
    <path d="M1601.63,396.566l-3.686,-0.134" style="fill:none;stroke:white;stroke-width:3px;"/>
    <path d="M1607.42,387.547l-2.88,-2.306" style="fill:none;stroke:white;stroke-width:3px;"/>
    <path d="M1582.34,397.156l-3.916,5.942" style="fill:none;stroke:white;stroke-width:3px;"/>
    <ellipse cx="1305.6" cy="792.78" rx="6.099" ry="6.008" style="fill:white;stroke:white;stroke-width:1px;"/>
    <path d="M1312.84,785.052l2.209,-2.885" style="fill:none;stroke:white;stroke-width:3px;"/>
    <path d="M1296.69,785.575l-5.287,-3.959" style="fill:none;stroke:white;stroke-width:3px;"/>
    <path d="M1297.19,801.192l2.338,-2.917" style="fill:none;stroke:white;stroke-width:3px;"/>
    <path d="M1306.09,801.097l0.158,3.365" style="fill:none;stroke:white;stroke-width:3px;"/>
    <path d="M1298.01,812.102l0.157,3.366" style="fill:none;stroke:white;stroke-width:3px;"/>
    <path d="M1306.33,783.096l3.212,-6.371" style="fill:none;stroke:white;stroke-width:3px;"/>
    <path d="M1313.56,794.973l3.116,1.794" style="fill:none;stroke:white;stroke-width:3px;"/>
    <ellipse cx="1199.35" cy="739.693" rx="6.099" ry="6.008" style="fill:white;stroke:white;stroke-width:1px;"/>
    <path d="M1187.1,732.697l-0.734,-3.268" style="fill:none;stroke:white;stroke-width:3px;"/>
    <path d="M1207.71,750.413l2.267,2.492" style="fill:none;stroke:white;stroke-width:3px;"/>
    <path d="M1210.04,741.818l6.397,0.475" style="fill:none;stroke:white;stroke-width:3px;"/>
    <ellipse cx="1182.92" cy="747.593" rx="6.417" ry="6.321" style="fill:white;stroke:white;stroke-width:1px;"/>
    <ellipse cx="1190.65" cy="761.562" rx="4.223" ry="4.188" style="fill:white;stroke:white;stroke-width:1px;"/>
    <ellipse cx="1201.68" cy="789.636" rx="4.223" ry="4.188" style="fill:white;stroke:white;stroke-width:1px;"/>
    <ellipse cx="1202.19" cy="802.155" rx="4.223" ry="4.188" style="fill:white;stroke:white;stroke-width:1px;"/>
    <path d="M1170.58,739.622l-6.083,-3.681" style="fill:none;stroke:white;stroke-width:3px;"/>
    <path d="M1170.12,754.406l-6.503,5.057" style="fill:none;stroke:white;stroke-width:3px;"/>
    <path d="M1179.84,739.103l-0.246,-7.388" style="fill:none;stroke:white;stroke-width:3px;"/>
    <path d="M1190.45,750.187l7.324,2.881" style="fill:none;stroke:white;stroke-width:3px;"/>
    <path d="M1209.55,788.602l7.869,-0.118" style="fill:none;stroke:white;stroke-width:3px;"/>
    <path d="M1189.56,787.553l1.654,10.556" style="fill:none;stroke:white;stroke-width:2.5px;"/>
    <path d="M1194.37,808.001l-4.045,4.604" style="fill:none;stroke:white;stroke-width:3px;"/>
    <path d="M1197.92,777.165l1.038,6.575" style="fill:none;stroke:white;stroke-width:2.5px;"/>
    <path d="M1208.8,801.704l7.643,1.878" style="fill:none;stroke:white;stroke-width:3px;"/>
    <path d="M1203.3,816.088l-0.477,-7.855" style="fill:none;stroke:white;stroke-width:2.5px;"/>
    <ellipse cx="1218.39" cy="722.896" rx="6.417" ry="6.321" style="fill:white;stroke:white;stroke-width:1px;"/>
    <path d="M1208.81,725.866l-5.258,3.766" style="fill:none;stroke:white;stroke-width:3px;"/>
    <path d="M1225.97,715.303l4.744,-5.67" style="fill:none;stroke:white;stroke-width:3px;"/>
    <path d="M1212.02,714.337l-3.157,-3.1" style="fill:none;stroke:white;stroke-width:3px;"/>
    <path d="M1229.99,725.843l10.639,0.966" style="fill:none;stroke:white;stroke-width:3px;"/>
    <path d="M1218.4,713.324l0.195,-12.21" style="fill:none;stroke:white;stroke-width:3px;"/>
    <path d="M1192.79,718.903l1.432,7.252" style="fill:none;stroke:white;stroke-width:3px;"/>
    <path d="M1220.9,732.234l4.016,6.768" style="fill:none;stroke:white;stroke-width:3px;"/>
</svg>
