<?xml version="1.0" encoding="utf-8"?>
<svg xmlns="http://www.w3.org/2000/svg" xmlns:svg="http://www.w3.org/2000/svg" version="1.1" viewBox="0 0 1400 440">
	<title>The titlepage for the Standard Ebooks edition of When the World Shook, by H. Rider Haggard</title>
	<g aria-label="WHEN">
		<path d="m 603.46783,130 h 19.46199 l 21.98831,-77.192984 h -19.46199 l -13.19298,52.959064 h -0.46784 L 597.76023,52.807016 h -13.28655 l -14.03509,52.959064 h -0.46783 L 556.77778,52.807016 H 537.22222 L 559.21052,130 h 19.55556 l 12.35088,-43.321638 z"/>
		<path d="m 671.72807,99.029239 h 24.88889 V 130 H 714.2076 V 52.807016 H 696.61696 V 83.590642 H 671.72807 V 52.807016 H 654.13742 V 130 h 17.59065 z"/>
		<path d="M 774.57309,52.807016 H 730.40935 V 130 h 44.16374 v -15.4386 h -26.5731 V 99.029239 h 25.4503 V 83.590642 h -25.4503 V 68.245613 h 26.5731 z"/>
		<path d="m 807.27631,82.093566 h 0.18714 L 838.15351,130 h 17.59064 V 52.807016 h -17.59064 v 47.906434 h -0.18714 L 807.27631,52.807016 H 789.68567 V 130 h 17.59064 z"/>
	</g>
	<g aria-label="THE WORLD SHOOK">
		<path d="m 182.01315,168.24561 h 18.33918 V 230 h 17.59064 v -61.75439 h 18.33919 v -15.43859 h -54.26901 z"/>
		<path d="m 265.20759,199.02924 h 24.88889 V 230 h 17.59065 v -77.19298 h -17.59065 v 30.78362 H 265.20759 V 152.80702 H 247.61695 V 230 h 17.59064 z"/>
		<path d="M 368.05263,152.80702 H 323.88889 V 230 h 44.16374 v -15.4386 h -26.5731 v -15.53216 h 25.45029 v -15.4386 h -25.45029 v -15.34503 h 26.5731 z"/>
		<path d="m 464.93713,230 h 19.46199 l 21.9883,-77.19298 h -19.46198 l -13.19299,52.95906 h -0.46783 l -14.03509,-52.95906 h -13.28655 l -14.03509,52.95906 h -0.46784 L 418.24707,152.80702 H 398.69152 L 420.67982,230 h 19.55556 l 12.35087,-43.32164 z"/>
		<path d="m 509.22077,191.35672 c 0,22.54971 16.09356,40.04679 38.92397,40.04679 22.17544,0 38.83041,-17.49708 38.83041,-40.04679 0,-22.5497 -17.40351,-39.95321 -38.83041,-39.95321 -21.23976,0 -38.92397,17.40351 -38.92397,39.95321 z m 18.99415,0 c 0,-11.50877 6.36257,-23.01754 19.92982,-23.01754 13.66082,0 19.83626,11.50877 19.83626,23.01754 0,11.50878 -5.80117,23.01755 -19.83626,23.01755 -14.40935,0 -19.92982,-11.50877 -19.92982,-23.01755 z"/>
		<path d="M 599.73683,152.80702 V 230 h 17.59064 V 199.49708 L 640.90642,230 H 663.269 l -26.5731,-31.90643 c 9.45029,-2.99416 15.81286,-10.76024 15.81286,-22.36258 0,-15.15789 -10.8538,-22.92397 -25.16959,-22.92397 z m 17.59064,34.24561 V 166.8421 h 2.05848 c 6.64328,0 14.5965,0.46784 14.5965,10.10527 0,9.63742 -7.95322,10.10526 -14.5965,10.10526 z"/>
		<path d="M 689.3962,152.80702 H 671.80556 V 230 h 44.16374 v -15.4386 h -26.5731 z"/>
		<path d="M 729.61986,152.80702 V 230 h 22.36257 c 21.23977,0 38.92398,-16.09357 38.92398,-38.64328 0,-22.45614 -17.77778,-38.5497 -38.92398,-38.5497 z m 17.59064,61.47368 v -45.75439 h 2.71345 c 13.09942,0 21.98831,10.0117 21.98831,22.92398 -0.0936,12.91228 -8.98246,22.83041 -21.98831,22.83041 z"/>
		<path d="m 860.90061,151.40351 c -12.44445,0 -25.16959,9.16959 -25.16959,23.57895 0,8.04678 5.4269,15.25146 14.69005,19.83625 9.16959,4.5848 17.40351,7.11111 17.40351,12.72515 0,7.20468 -7.29824,7.57895 -11.1345,7.57895 -8.60819,0 -18.90059,-8.70176 -18.90059,-8.70176 l -8.79532,14.78363 c 0,0 10.94737,10.19883 29.00585,10.19883 15.06433,0 29.09942,-6.45614 29.09942,-24.88889 0,-10.10526 -9.4503,-17.40351 -18.05848,-21.05263 -8.79532,-3.74269 -16.09357,-6.83041 -16.09357,-11.13451 0,-4.21052 3.18129,-6.92397 9.16959,-6.92397 7.95322,0 15.62573,5.33333 15.62573,5.33333 l 7.11111,-14.03509 c 0,0 -9.91813,-7.29824 -23.95321,-7.29824 z"/>
		<path d="m 917.91228,199.02924 h 24.88889 V 230 h 17.59065 v -77.19298 h -17.59065 v 30.78362 H 917.91228 V 152.80702 H 900.32164 V 230 h 17.59064 z"/>
		<path d="m 973.13156,191.35672 c 0,22.54971 16.09357,40.04679 38.92394,40.04679 22.1755,0 38.8305,-17.49708 38.8305,-40.04679 0,-22.5497 -17.4036,-39.95321 -38.8305,-39.95321 -21.23973,0 -38.92394,17.40351 -38.92394,39.95321 z m 18.99416,0 c 0,-11.50877 6.36257,-23.01754 19.92978,-23.01754 13.6609,0 19.8363,11.50877 19.8363,23.01754 0,11.50878 -5.8012,23.01755 -19.8363,23.01755 -14.40932,0 -19.92978,-11.50877 -19.92978,-23.01755 z"/>
		<path d="m 1060.1857,191.35672 c 0,22.54971 16.0936,40.04679 38.924,40.04679 22.1754,0 38.8304,-17.49708 38.8304,-40.04679 0,-22.5497 -17.4035,-39.95321 -38.8304,-39.95321 -21.2398,0 -38.924,17.40351 -38.924,39.95321 z m 18.9942,0 c 0,-11.50877 6.3625,-23.01754 19.9298,-23.01754 13.6608,0 19.8362,11.50877 19.8362,23.01754 0,11.50878 -5.8011,23.01755 -19.8362,23.01755 -14.4094,0 -19.9298,-11.50877 -19.9298,-23.01755 z"/>
		<path d="m 1220.9708,230 -35.9299,-40.60819 31.0644,-36.58479 h -21.3334 l -26.4795,31.53216 v -31.53216 h -17.5906 V 230 h 17.5906 V 197.25146 L 1196.7369,230 Z"/>
	</g>
	<g aria-label="H. RIDER HAGGARD">
		<path d="M 323.47533,366.77193 H 342.142 V 390 h 13.19298 V 332.10526 H 342.142 v 23.08772 H 323.47533 V 332.10526 H 310.28235 V 390 h 13.19298 z"/>
		<path d="m 376.73629,374.98246 c -4.42105,0 -7.99999,3.57894 -7.99999,8.07017 0,4.42105 3.57894,8 7.99999,8 4.49123,0 8.07018,-3.57895 8.07018,-8 0,-4.49123 -3.57895,-8.07017 -8.07018,-8.07017 z"/>
		<path d="M 422.45888,332.10526 V 390 h 13.19298 V 367.12281 L 453.33607,390 H 470.108 l -19.92982,-23.92982 c 7.08772,-2.24562 11.85965,-8.07018 11.85965,-16.77193 0,-11.36842 -8.14036,-17.19299 -18.8772,-17.19299 z m 13.19298,25.68421 v -15.15789 h 1.54386 c 4.98246,0 10.94737,0.35088 10.94737,7.57895 0,7.22807 -5.96491,7.57894 -10.94737,7.57894 z"/>
		<path d="M 490.95339,332.10526 H 477.76041 V 390 h 13.19298 z"/>
		<path d="M 504.41611,332.10526 V 390 h 16.77193 c 15.92982,0 29.19298,-12.07018 29.19298,-28.98246 0,-16.8421 -13.33333,-28.91228 -29.19298,-28.91228 z m 13.19298,46.10527 v -34.31579 h 2.03509 c 9.82456,0 16.49123,7.50877 16.49123,17.19298 -0.0702,9.68421 -6.73685,17.12281 -16.49123,17.12281 z"/>
		<path d="m 594.34813,332.10526 h -33.1228 V 390 h 33.1228 v -11.57895 h -19.92982 v -11.64912 h 19.08772 v -11.57895 h -19.08772 v -11.50877 h 19.92982 z"/>
		<path d="M 606.93256,332.10526 V 390 h 13.19298 V 367.12281 L 637.80975,390 h 16.77193 l -19.92982,-23.92982 c 7.08771,-2.24562 11.85964,-8.07018 11.85964,-16.77193 0,-11.36842 -8.14035,-17.19299 -18.87719,-17.19299 z m 13.19298,25.68421 v -15.15789 h 1.54386 c 4.98246,0 10.94737,0.35088 10.94737,7.57895 0,7.22807 -5.96491,7.57894 -10.94737,7.57894 z"/>
		<path d="m 699.61568,366.77193 h 18.66667 V 390 h 13.19298 v -57.89474 h -13.19298 v 23.08772 H 699.61568 V 332.10526 H 686.4227 V 390 h 13.19298 z"/>
		<path d="M 774.28016,332.10526 H 762.06963 L 738.70121,390 h 14.17544 l 4.2807,-11.57895 h 22.03509 L 783.47314,390 h 14.17544 z m 0.42105,34.73685 H 761.64858 L 768.10472,350 h 0.14035 z"/>
		<path d="m 857.18913,357.57895 h -26.73684 v 10.17544 h 13.33334 c 0,7.08772 -6.24562,11.15789 -12.56141,11.15789 -8.14035,0 -14.73684,-8 -14.73684,-17.82456 0,-10.03509 6.59649,-18.10526 14.73684,-18.10526 5.12281,0 9.54386,2.03508 12.91228,7.43859 l 8.63158,-9.47368 c -5.05263,-6.10526 -12.14035,-9.89474 -22.31579,-9.89474 -16.2807,0 -28.21052,13.40351 -28.21052,30.03509 0,16.5614 12.63158,29.96491 28.21052,29.96491 11.36842,0 23.57895,-6.24561 26.73684,-20.91228 z"/>
		<path d="m 920.30315,357.57895 h -26.73684 v 10.17544 h 13.33333 c 0,7.08772 -6.24561,11.15789 -12.5614,11.15789 -8.14035,0 -14.73685,-8 -14.73685,-17.82456 0,-10.03509 6.5965,-18.10526 14.73685,-18.10526 5.1228,0 9.54386,2.03508 12.91228,7.43859 l 8.63158,-9.47368 c -5.05264,-6.10526 -12.14035,-9.89474 -22.31579,-9.89474 -16.28071,0 -28.21053,13.40351 -28.21053,30.03509 0,16.5614 12.63158,29.96491 28.21053,29.96491 11.36842,0 23.57894,-6.24561 26.73684,-20.91228 z"/>
		<path d="M 960.46985,332.10526 H 948.25933 L 924.89091,390 h 14.17544 l 4.2807,-11.57895 h 22.03509 L 969.66284,390 h 14.17544 z m 0.42106,34.73685 H 947.83828 L 954.29442,350 h 0.14035 z"/>
		<path d="M 991.02796,332.10526 V 390 h 13.19294 V 367.12281 L 1021.9051,390 h 16.772 l -19.9298,-23.92982 c 7.0877,-2.24562 11.8596,-8.07018 11.8596,-16.77193 0,-11.36842 -8.1403,-17.19299 -18.8772,-17.19299 z m 13.19294,25.68421 v -15.15789 h 1.5439 c 4.9825,0 10.9474,0.35088 10.9474,7.57895 0,7.22807 -5.9649,7.57894 -10.9474,7.57894 z"/>
		<path d="M 1046.3295,332.10526 V 390 h 16.7719 c 15.9298,0 29.193,-12.07018 29.193,-28.98246 0,-16.8421 -13.3334,-28.91228 -29.193,-28.91228 z m 13.193,46.10527 v -34.31579 h 2.035 c 9.8246,0 16.4913,7.50877 16.4913,17.19298 -0.07,9.68421 -6.7369,17.12281 -16.4913,17.12281 z"/>
	</g>
</svg>
